<svg xmlns="http://www.w3.org/2000/svg" width="200" height="200" viewBox="0 0 200 200">
  <defs>
    <pattern id="arabesquePattern" patternUnits="userSpaceOnUse" width="100" height="100">
      <!-- Base arabesque curve -->
      <path d="M20,50 C30,20 70,20 80,50 C90,80 50,80 40,50" 
            fill="none" 
            stroke="#D4A74F" 
            stroke-width="0.5" 
            opacity="0.25" />
            
      <!-- Mirrored arabesque -->
      <path d="M20,50 C30,80 70,80 80,50 C90,20 50,20 40,50" 
            fill="none" 
            stroke="#D4A74F" 
            stroke-width="0.5" 
            opacity="0.25" />
            
      <!-- Connecting flourish 1 -->
      <path d="M50,20 C60,30 55,40 50,45 C45,40 40,30 50,20" 
            fill="none" 
            stroke="#D4A74F" 
            stroke-width="0.4" 
            opacity="0.2" />
            
      <!-- Connecting flourish 2 -->
      <path d="M50,80 C60,70 55,60 50,55 C45,60 40,70 50,80" 
            fill="none" 
            stroke="#D4A74F" 
            stroke-width="0.4" 
            opacity="0.2" />
            
      <!-- Small decorative elements -->
      <circle cx="50" cy="50" r="2" 
              fill="none" 
              stroke="#D4A74F" 
              stroke-width="0.3" 
              opacity="0.3" />
              
      <circle cx="20" cy="50" r="1.5" 
              fill="none" 
              stroke="#D4A74F" 
              stroke-width="0.3" 
              opacity="0.2" />
              
      <circle cx="80" cy="50" r="1.5" 
              fill="none" 
              stroke="#D4A74F" 
              stroke-width="0.3" 
              opacity="0.2" />
              
      <!-- Corner decorative flourishes -->
      <path d="M5,5 Q15,5 15,15 Q5,15 5,5" 
            fill="none" 
            stroke="#D4A74F" 
            stroke-width="0.3" 
            opacity="0.15" />
            
      <path d="M95,5 Q85,5 85,15 Q95,15 95,5" 
            fill="none" 
            stroke="#D4A74F" 
            stroke-width="0.3" 
            opacity="0.15" />
            
      <path d="M5,95 Q15,95 15,85 Q5,85 5,95" 
            fill="none" 
            stroke="#D4A74F" 
            stroke-width="0.3" 
            opacity="0.15" />
            
      <path d="M95,95 Q85,95 85,85 Q95,85 95,95" 
            fill="none" 
            stroke="#D4A74F" 
            stroke-width="0.3" 
            opacity="0.15" />
    </pattern>
  </defs>
  <rect width="100%" height="100%" fill="url(#arabesquePattern)" />
</svg> 
 