<svg xmlns="http://www.w3.org/2000/svg" viewBox="0 0 1920 400" preserveAspectRatio="xMidYMax meet">
  <path d="M960 50 L1000 50 L1000 150 L1050 150 L1050 200 L1100 200 L1100 250 L1150 230 L1200 250 L1250 230 L1300 250 L1350 230 L1400 250 L1400 100 L1420 100 L1420 250 L1450 230 L1500 250 L1550 230 L1600 250 L1650 230 L1700 250 L1700 300 L960 300 Z" fill="#D4A74F" opacity="0.8"/>
  <path d="M960 50 L920 50 L920 150 L870 150 L870 200 L820 200 L820 250 L770 230 L720 250 L670 230 L620 250 L570 230 L520 250 L520 100 L500 100 L500 250 L450 230 L400 250 L350 230 L300 250 L250 230 L220 250 L220 300 L960 300 Z" fill="#D4A74F" opacity="0.8"/>
  <circle cx="960" cy="25" r="15" fill="#D4A74F" opacity="0.8"/>
  <path d="M940 50 L940 150 L980 150 L980 50 Z" fill="#D4A74F" opacity="0.8"/>
  <path d="M0 300 L1920 300 L1920 400 L0 400 Z" fill="#11080D" opacity="0.9"/>
</svg> 
 