<svg xmlns="http://www.w3.org/2000/svg" width="200" height="200" viewBox="0 0 200 200">
  <defs>
    <pattern id="starPattern" patternUnits="userSpaceOnUse" width="100" height="100">
      <!-- 8-point islamic star pattern -->
      <path d="M50,10 L57,40 L90,50 L57,60 L50,90 L43,60 L10,50 L43,40 Z" 
            fill="none" 
            stroke="#D4A74F" 
            stroke-width="0.7" 
            opacity="0.25" />
            
      <!-- Inner star -->
      <path d="M50,30 L53.5,45 L70,50 L53.5,55 L50,70 L46.5,55 L30,50 L46.5,45 Z" 
            fill="none" 
            stroke="#D4A74F" 
            stroke-width="0.5" 
            opacity="0.2" />
            
      <!-- Center circle -->
      <circle cx="50" cy="50" r="5" 
              fill="none" 
              stroke="#D4A74F" 
              stroke-width="0.3" 
              opacity="0.3" />
              
      <!-- Connecting lines to adjacent stars -->
      <path d="M10,50 L0,50 M90,50 L100,50 M50,10 L50,0 M50,90 L50,100" 
            stroke="#D4A74F" 
            stroke-width="0.3" 
            opacity="0.15" />
            
      <!-- Decorative corner elements -->
      <path d="M5,5 A 10,10 0 0 1 15,15 L5,15 Z" 
            fill="none" 
            stroke="#D4A74F" 
            stroke-width="0.3" 
            opacity="0.2" />
      <path d="M95,5 A 10,10 0 0 0 85,15 L95,15 Z" 
            fill="none" 
            stroke="#D4A74F" 
            stroke-width="0.3" 
            opacity="0.2" />
      <path d="M5,95 A 10,10 0 0 0 15,85 L5,85 Z" 
            fill="none" 
            stroke="#D4A74F" 
            stroke-width="0.3" 
            opacity="0.2" />
      <path d="M95,95 A 10,10 0 0 1 85,85 L95,85 Z" 
            fill="none" 
            stroke="#D4A74F" 
            stroke-width="0.3" 
            opacity="0.2" />
    </pattern>
  </defs>
  <rect width="100%" height="100%" fill="url(#starPattern)" />
</svg> 
 